<?xml version="1.0" encoding="UTF-8" standalone="no"?><!DOCTYPE svg PUBLIC "-//W3C//DTD SVG 1.1//EN" "http://www.w3.org/Graphics/SVG/1.1/DTD/svg11.dtd"><svg width="100%" height="100%" viewBox="0 0 4500 4500" version="1.1" xmlns="http://www.w3.org/2000/svg" xmlns:xlink="http://www.w3.org/1999/xlink" xml:space="preserve" xmlns:serif="http://www.serif.com/" style="fill-rule:evenodd;clip-rule:evenodd;stroke-linejoin:round;stroke-miterlimit:2;"><path d="M2200,904.881l185.65,222.971l245.465,-154.689l107.662,269.427l281.253,-71.265l19.135,289.51l289.51,19.135l-71.265,281.253l269.427,107.662l-154.689,245.465l222.971,185.65l-222.971,185.65l154.689,245.465l-269.427,107.662l71.265,281.253l-289.51,19.135l-19.135,289.51l-281.253,-71.265l-107.662,269.427l-245.465,-154.689l-185.65,222.971l-185.65,-222.971l-245.465,154.689l-107.662,-269.427l-281.253,71.265l-19.135,-289.51l-289.51,-19.135l71.265,-281.253l-269.427,-107.662l154.689,-245.465l-222.971,-185.65l222.971,-185.65l-154.689,-245.465l269.427,-107.662l-71.265,-281.253l289.51,-19.135l19.135,-289.51l281.253,71.265l107.662,-269.427l245.465,154.689l185.65,-222.971Z" style="fill:#ff0e0e;"/><path d="M2200,904.881l185.65,222.971l245.465,-154.689l107.662,269.427l281.253,-71.265l19.135,289.51l289.51,19.135l-71.265,281.253l269.427,107.662l-154.689,245.465l222.971,185.65l-222.971,185.65l154.689,245.465l-269.427,107.662l71.265,281.253l-289.51,19.135l-19.135,289.51l-281.253,-71.265l-107.662,269.427l-245.465,-154.689l-185.65,222.971l-185.65,-222.971l-245.465,154.689l-107.662,-269.427l-281.253,71.265l-19.135,-289.51l-289.51,-19.135l71.265,-281.253l-269.427,-107.662l154.689,-245.465l-222.971,-185.65l222.971,-185.65l-154.689,-245.465l269.427,-107.662l-71.265,-281.253l289.51,-19.135l19.135,-289.51l281.253,71.265l107.662,-269.427l245.465,154.689l185.65,-222.971Zm-0,199.696l-87.454,105.035l-71.622,86.02l-210.33,-132.546l-92.251,230.861l-240.995,-61.064l-16.396,248.069l-248.069,16.396l61.064,240.995l-230.861,92.251l132.546,210.33l-191.055,159.076l191.055,159.076l-132.546,210.33l230.861,92.251l-61.064,240.995l248.069,16.396l16.396,248.069l240.995,-61.064l92.251,230.861l210.33,-132.546l159.076,191.055l159.076,-191.055l210.33,132.546l92.251,-230.861l240.995,61.064l16.396,-248.069l248.069,-16.396l-61.064,-240.995l230.861,-92.251l-132.546,-210.33l191.055,-159.076l-191.055,-159.076l132.546,-210.33l-230.861,-92.251l61.064,-240.995l-248.069,-16.396l-16.396,-248.069l-240.995,61.064l-92.251,-230.861l-210.33,132.546l-159.076,-191.055Z" style="fill:#ff0e0e;"/><path d="M2250,854.881l185.65,222.971l245.465,-154.689l107.662,269.427l281.253,-71.265l19.135,289.51l289.51,19.135l-71.265,281.253l269.427,107.662l-154.689,245.465l222.971,185.65l-222.971,185.65l154.689,245.465l-269.427,107.662l71.265,281.253l-289.51,19.135l-19.135,289.51l-281.253,-71.265l-107.662,269.427l-245.465,-154.689l-185.65,222.971l-185.65,-222.971l-245.465,154.689l-107.662,-269.427l-281.253,71.265l-19.135,-289.51l-289.51,-19.135l71.265,-281.253l-269.427,-107.662l154.689,-245.465l-222.971,-185.65l222.971,-185.65l-154.689,-245.465l269.427,-107.662l-71.265,-281.253l289.51,-19.135l19.135,-289.51l281.253,71.265l107.662,-269.427l245.465,154.689l185.65,-222.971Z" style="fill:#ff0e0e;"/><path d="M2250,854.881l185.65,222.971l245.465,-154.689l107.662,269.427l281.253,-71.265l19.135,289.51l289.51,19.135l-71.265,281.253l269.427,107.662l-154.689,245.465l222.971,185.65l-222.971,185.65l154.689,245.465l-269.427,107.662l71.265,281.253l-289.51,19.135l-19.135,289.51l-281.253,-71.265l-107.662,269.427l-245.465,-154.689l-185.65,222.971l-185.65,-222.971l-245.465,154.689l-107.662,-269.427l-281.253,71.265l-19.135,-289.51l-289.51,-19.135l71.265,-281.253l-269.427,-107.662l154.689,-245.465l-222.971,-185.65l222.971,-185.65l-154.689,-245.465l269.427,-107.662l-71.265,-281.253l289.51,-19.135l19.135,-289.51l281.253,71.265l107.662,-269.427l245.465,154.689l185.65,-222.971Zm-0,199.696l-87.454,105.035l-71.622,86.02l-210.33,-132.546l-92.251,230.861l-240.995,-61.064l-16.396,248.069l-248.069,16.396l61.064,240.995l-230.861,92.251l132.546,210.33l-191.055,159.076l191.055,159.076l-132.546,210.33l230.861,92.251l-61.064,240.995l248.069,16.396l16.396,248.069l240.995,-61.064l92.251,230.861l210.33,-132.546l159.076,191.055l159.076,-191.055l210.33,132.546l92.251,-230.861l240.995,61.064l16.396,-248.069l248.069,-16.396l-61.064,-240.995l230.861,-92.251l-132.546,-210.33l191.055,-159.076l-191.055,-159.076l132.546,-210.33l-230.861,-92.251l61.064,-240.995l-248.069,-16.396l-16.396,-248.069l-240.995,61.064l-92.251,-230.861l-210.33,132.546l-159.076,-191.055Z" style="fill:#fff;"/></svg>