<svg xmlns="http://www.w3.org/2000/svg" xml:space="preserve" style="fill-rule:evenodd;clip-rule:evenodd;stroke-linejoin:round;stroke-miterlimit:2" viewBox="0 0 4500 4500"><path d="m2200 904.881 185.65 222.971 245.465-154.689 107.662 269.427 281.253-71.265 19.135 289.51 289.51 19.135-71.265 281.253 269.427 107.662-154.689 245.465L3595.119 2300l-222.971 185.65 154.689 245.465-269.427 107.662 71.265 281.253-289.51 19.135-19.135 289.51-281.253-71.265-107.662 269.427-245.465-154.689L2200 3695.119l-185.65-222.971-245.465 154.689-107.662-269.427-281.253 71.265-19.135-289.51-289.51-19.135 71.265-281.253-269.427-107.662 154.689-245.465L804.881 2300l222.971-185.65-154.689-245.465 269.427-107.662-71.265-281.253 289.51-19.135 19.135-289.51 281.253 71.265 107.662-269.427 245.465 154.689L2200 904.881Z" style="fill:#ff0e0e"/><path d="m2200 904.881 185.65 222.971 245.465-154.689 107.662 269.427 281.253-71.265 19.135 289.51 289.51 19.135-71.265 281.253 269.427 107.662-154.689 245.465L3595.119 2300l-222.971 185.65 154.689 245.465-269.427 107.662 71.265 281.253-289.51 19.135-19.135 289.51-281.253-71.265-107.662 269.427-245.465-154.689L2200 3695.119l-185.65-222.971-245.465 154.689-107.662-269.427-281.253 71.265-19.135-289.51-289.51-19.135 71.265-281.253-269.427-107.662 154.689-245.465L804.881 2300l222.971-185.65-154.689-245.465 269.427-107.662-71.265-281.253 289.51-19.135 19.135-289.51 281.253 71.265 107.662-269.427 245.465 154.689L2200 904.881Zm0 199.696-87.454 105.035-71.622 86.02-210.33-132.546-92.251 230.861-240.995-61.064-16.396 248.069-248.069 16.396 61.064 240.995-230.861 92.251 132.546 210.33L1004.577 2300l191.055 159.076-132.546 210.33 230.861 92.251-61.064 240.995 248.069 16.396 16.396 248.069 240.995-61.064 92.251 230.861 210.33-132.546L2200 3495.423l159.076-191.055 210.33 132.546 92.251-230.861 240.995 61.064 16.396-248.069 248.069-16.396-61.064-240.995 230.861-92.251-132.546-210.33L3395.423 2300l-191.055-159.076 132.546-210.33-230.861-92.251 61.064-240.995-248.069-16.396-16.396-248.069-240.995 61.064-92.251-230.861-210.33 132.546L2200 1104.577Z" style="fill:#ff0e0e"/><path d="m2250 854.881 185.65 222.971 245.465-154.689 107.662 269.427 281.253-71.265 19.135 289.51 289.51 19.135-71.265 281.253 269.427 107.662-154.689 245.465L3645.119 2250l-222.971 185.65 154.689 245.465-269.427 107.662 71.265 281.253-289.51 19.135-19.135 289.51-281.253-71.265-107.662 269.427-245.465-154.689L2250 3645.119l-185.65-222.971-245.465 154.689-107.662-269.427-281.253 71.265-19.135-289.51-289.51-19.135 71.265-281.253-269.427-107.662 154.689-245.465L854.881 2250l222.971-185.65-154.689-245.465 269.427-107.662-71.265-281.253 289.51-19.135 19.135-289.51 281.253 71.265 107.662-269.427 245.465 154.689L2250 854.881Z" style="fill:#ff0e0e"/><path d="m2250 854.881 185.65 222.971 245.465-154.689 107.662 269.427 281.253-71.265 19.135 289.51 289.51 19.135-71.265 281.253 269.427 107.662-154.689 245.465L3645.119 2250l-222.971 185.65 154.689 245.465-269.427 107.662 71.265 281.253-289.51 19.135-19.135 289.51-281.253-71.265-107.662 269.427-245.465-154.689L2250 3645.119l-185.65-222.971-245.465 154.689-107.662-269.427-281.253 71.265-19.135-289.51-289.51-19.135 71.265-281.253-269.427-107.662 154.689-245.465L854.881 2250l222.971-185.65-154.689-245.465 269.427-107.662-71.265-281.253 289.51-19.135 19.135-289.51 281.253 71.265 107.662-269.427 245.465 154.689L2250 854.881Zm0 199.696-87.454 105.035-71.622 86.02-210.33-132.546-92.251 230.861-240.995-61.064-16.396 248.069-248.069 16.396 61.064 240.995-230.861 92.251 132.546 210.33L1054.577 2250l191.055 159.076-132.546 210.33 230.861 92.251-61.064 240.995 248.069 16.396 16.396 248.069 240.995-61.064 92.251 230.861 210.33-132.546L2250 3445.423l159.076-191.055 210.33 132.546 92.251-230.861 240.995 61.064 16.396-248.069 248.069-16.396-61.064-240.995 230.861-92.251-132.546-210.33L3445.423 2250l-191.055-159.076 132.546-210.33-230.861-92.251 61.064-240.995-248.069-16.396-16.396-248.069-240.995 61.064-92.251-230.861-210.33 132.546L2250 1054.577Z" style="fill:#fff"/></svg>